<svg xmlns="http://www.w3.org/2000/svg" version="1.1" xmlns:xlink="http://www.w3.org/1999/xlink" xmlns:svgjs="http://svgjs.dev/svgjs" width="1000" height="1000" viewBox="0 0 1000 1000"><rect width="1000" height="1000" fill="#010536"></rect><g transform="matrix(0.7,0,0,0.7,149.57575757575756,409.4317584661459)"><svg viewBox="0 0 396 103" data-background-color="#010536" preserveAspectRatio="xMidYMid meet" height="260" width="1000" xmlns="http://www.w3.org/2000/svg" xmlns:xlink="http://www.w3.org/1999/xlink"><g id="tight-bounds" transform="matrix(1,0,0,1,0.2400000000000091,-0.2443457014993271)"><svg viewBox="0 0 395.52 103.48868748438773" height="103.48868748438773" width="395.52"><g><svg viewBox="0 0 603.5259976622776 157.91391929807537" height="103.48868748438773" width="395.52"><g transform="matrix(1,0,0,1,206.02839766227765,48.79769316735789)"><svg viewBox="0 0 397.4975999999999 60.31853296335958" height="60.31853296335958" width="397.4975999999999"><g id="textblocktransform"><svg viewBox="0 0 397.4975999999999 60.31853296335958" height="60.31853296335958" width="397.4975999999999" id="textblock"><g><rect width="397.4975999999999" height="3.0041848808462817" x="0" y="36.85178562067333" fill="#fbfbf8" opacity="1" stroke-width="0" stroke="transparent" fill-opacity="1" class="rect-o-0" data-fill-palette-color="primary" rx="1%" id="o-0" data-palette-color="#fbfbf8"></rect></g><g transform="matrix(1,0,0,1,0.9887999999999693,0)"><svg viewBox="0 0 395.52 33.31282437360311" height="33.31282437360311" width="395.52"><g transform="matrix(1,0,0,1,0,0)"><svg width="395.52" viewBox="0 -35.79999923706055 425.0199890136719 35.79999923706055" height="33.31282437360311" data-palette-color="#fbfbf8"><path d="M26.7-2.15L31.55-2.15 31.55 0 0 0 0-2.15 4.85-2.15 4.85-34.95 10.75-34.95 10.75-5.6 26.7-5.6 26.7-2.15ZM28.3-2.15L33.15-2.15 33.15-34.95 57.7-34.95 57.7-29.4 39.05-29.4 39.05-20.15 55.8-20.15 55.8-14.9 39.05-14.9 39.05-5.55 58.3-5.55 58.3-2.15 63.15-2.15 63.15 0 28.3 0 28.3-2.15ZM91.05-2.15L102.5-2.15 102.5 0 60.5 0 60.5-2.15 71.95-2.15Q67.84-4.5 65.47-8.6 63.1-12.7 63.1-17.75L63.1-17.75Q63.1-25.45 68.4-30.63 73.7-35.8 81.5-35.8 89.3-35.8 94.59-30.63 99.9-25.45 99.9-17.75L99.9-17.75Q99.9-12.75 97.52-8.6 95.15-4.45 91.05-2.15L91.05-2.15ZM90.27-26.7Q86.7-30.4 81.5-30.4 76.3-30.4 72.72-26.7 69.15-23 69.15-17.73 69.15-12.45 72.72-8.75 76.3-5.05 81.5-5.05 86.7-5.05 90.27-8.75 93.84-12.45 93.84-17.73 93.84-23 90.27-26.7ZM102.49-2.15L116.19-2.15 116.19 0 102.49 0 102.49-2.15ZM146.44-2.15L152.99-2.15 152.99 0 116.19 0 116.19-2.15 127.29-2.15Q123.34-4.5 121.07-8.55 118.79-12.6 118.79-17.7L118.79-17.7Q118.79-25.4 124.12-30.6 129.44-35.8 137.56-35.8 145.69-35.8 151.14-29.8L151.14-29.8 147.39-25.7Q144.89-28.1 142.67-29.05 140.44-30 137.44-30L137.44-30Q132.14-30 128.54-26.58 124.94-23.15 124.94-17.82 124.94-12.5 128.52-8.93 132.09-5.35 136.99-5.35L136.99-5.35Q140.04-5.35 142.24-6.38 144.44-7.4 146.84-9.65L146.84-9.65 150.64-5.75Q148.44-3.35 146.44-2.15L146.44-2.15ZM152.99-2.15L166.69-2.15 166.69 0 152.99 0 152.99-2.15ZM191.94-2.15L198.19-2.15 198.19 0 166.69 0 166.69-2.15 173.09-2.15Q170.69-3.4 168.69-5.25L168.69-5.25 172.38-9.7Q177.69-5.1 183.38-5.1L183.38-5.1Q186.24-5.1 187.91-6.33 189.59-7.55 189.59-9.58 189.59-11.6 188.01-12.73 186.44-13.85 182.59-14.78 178.74-15.7 176.74-16.48 174.74-17.25 173.19-18.5L173.19-18.5Q170.09-20.85 170.09-25.7 170.09-30.55 173.61-33.18 177.13-35.8 182.34-35.8L182.34-35.8Q185.69-35.8 188.99-34.7 192.28-33.6 194.69-31.6L194.69-31.6 191.53-27.15Q189.99-28.55 187.34-29.45 184.69-30.35 182.11-30.35 179.53-30.35 177.88-29.3 176.24-28.25 176.24-26.13 176.24-24 177.88-22.88 179.53-21.75 184.91-20.45 190.28-19.15 193.01-16.8 195.74-14.45 195.74-10.2L195.74-10.2Q195.74-5.05 191.94-2.15L191.94-2.15ZM233.98-2.15L239.78-2.15 239.78 0 228.63 0 225.13-7.95 207.63-7.95 204.13 0 192.98 0 192.98-2.15 198.78-2.15 213.23-34.95 219.53-34.95 233.98-2.15ZM210.03-13.4L222.73-13.4 216.38-27.8 210.03-13.4ZM234.93-2.15L239.78-2.15 239.78-34.95 245.68-34.95 265.98-8.85 265.98-34.95 271.88-34.95 271.88-2.15 276.73-2.15 276.73 0 265.48 0 245.68-25.5 245.68 0 234.93 0 234.93-2.15ZM294.78-2.15L306.93-2.15 306.93 0 276.73 0 276.73-2.15 288.88-2.15 288.88-29.55 278.28-29.55 278.28-34.95 305.38-34.95 305.38-29.55 294.78-29.55 294.78-2.15ZM340.32-2.15L346.13-2.15 346.13 0 334.98 0 331.48-7.95 313.98-7.95 310.48 0 299.32 0 299.32-2.15 305.13-2.15 319.57-34.95 325.88-34.95 340.32-2.15ZM316.38-13.4L329.07-13.4 322.73-27.8 316.38-13.4ZM341.27-2.15L346.12-2.15 346.12-34.95 352.02-34.95 372.32-8.85 372.32-34.95 378.22-34.95 378.22-2.15 383.07-2.15 383.07 0 371.82 0 352.02-25.5 352.02 0 341.27 0 341.27-2.15ZM419.22-2.15L425.02-2.15 425.02 0 413.87 0 410.37-7.95 392.87-7.95 389.37 0 378.22 0 378.22-2.15 384.02-2.15 398.47-34.95 404.77-34.95 419.22-2.15ZM395.27-13.4L407.97-13.4 401.62-27.8 395.27-13.4Z" opacity="1" transform="matrix(1,0,0,1,0,0)" fill="#fbfbf8" class="undefined-text-0" data-fill-palette-color="primary" id="text-0"></path></svg></g></svg></g><g transform="matrix(1,0,0,1,0,43.39493174858984)"><svg viewBox="0 0 232.209792 16.92360121476974" height="16.92360121476974" width="232.209792"><g transform="matrix(1,0,0,1,0,0)"><svg width="232.209792" viewBox="2.3399999141693115 -38.09000015258789 529.5599975585938 38.599998474121094" height="16.92360121476974" data-palette-color="#fbfbf8"><path d="M23.51 0L10.74 0 10.74-3.08 14.72-3.76 14.72-31.91 6.67-31.91 5.96-26.98 2.34-26.98 2.34-35.55 31.88-35.55 31.88-26.98 28.32-26.98 27.59-31.91 19.53-31.91 19.53-3.76 23.51-3.08 23.51 0ZM48.29 0L35.52 0 35.52-3.08 39.5-3.76 39.5-34.3 35.52-34.99 35.52-38.09 44.31-38.09 44.31-22.9Q45.68-24.8 47.65-25.85 49.63-26.9 52.05-26.9L52.05-26.9Q56.3-26.9 58.64-24.37 60.98-21.83 60.98-16.55L60.98-16.55 60.98-3.76 64.96-3.08 64.96 0 52.19 0 52.19-3.08 56.17-3.76 56.17-16.6Q56.17-19.87 54.77-21.44 53.37-23 50.58-23L50.58-23Q48.61-23 46.98-22.06 45.36-21.12 44.31-19.51L44.31-19.51 44.31-3.76 48.29-3.08 48.29 0ZM79.9 0.51L79.9 0.51Q76.24 0.51 73.53-1.16 70.82-2.83 69.34-5.81 67.87-8.79 67.87-12.7L67.87-12.7 67.87-13.77Q67.87-17.53 69.42-20.5 70.97-23.46 73.54-25.18 76.12-26.9 79.17-26.9L79.17-26.9Q82.73-26.9 85.14-25.44 87.54-23.97 88.76-21.33 89.99-18.68 89.99-15.09L89.99-15.09 89.99-12.08 72.85-12.08 72.77-11.96Q72.82-9.42 73.66-7.46 74.51-5.49 76.09-4.37 77.68-3.25 79.9-3.25L79.9-3.25Q82.34-3.25 84.19-3.94 86.03-4.64 87.37-5.86L87.37-5.86 89.25-2.73Q87.84-1.37 85.51-0.43 83.17 0.51 79.9 0.51ZM72.94-15.97L72.99-15.84 85.18-15.84 85.18-16.48Q85.18-18.38 84.5-19.89 83.83-21.39 82.5-22.25 81.17-23.12 79.17-23.12L79.17-23.12Q77.56-23.12 76.24-22.18 74.92-21.24 74.07-19.63 73.21-18.02 72.94-15.97L72.94-15.97ZM119.64 0L115.52 0 108.56-22.97 105.61-23.32 105.61-26.42 116.52-26.42 116.52-23.32 113.27-22.78 116.91-9.62 117.74-6.49 117.89-6.49 118.96-9.62 124.7-26.42 128.75-26.42 134.22-9.67 135.39-5.96 135.54-5.96 136.68-9.67 140.37-22.8 137.05-23.32 137.05-26.42 147.72-26.42 147.72-23.32 144.79-22.9 137.95 0 133.39 0 128.04-15.87 126.77-20.12 126.63-20.09 125.38-15.87 119.64 0ZM163.24 0L150.48 0 150.48-3.08 154.46-3.76 154.46-22.63 150.48-23.32 150.48-26.42 159.26-26.42 159.26-3.76 163.24-3.08 163.24 0ZM159.26-32.93L154.21-32.93 154.21-38.09 159.26-38.09 159.26-32.93ZM179.33 0L166.56 0 166.56-3.08 170.54-3.76 170.54-22.63 166.56-23.32 166.56-26.42 174.84-26.42 175.18-22.49Q176.5-24.58 178.49-25.74 180.48-26.9 183.02-26.9L183.02-26.9Q187.29-26.9 189.63-24.4 191.98-21.9 191.98-16.67L191.98-16.67 191.98-3.76 195.96-3.08 195.96 0 183.19 0 183.19-3.08 187.17-3.76 187.17-16.58Q187.17-20.07 185.79-21.53 184.41-23 181.58-23L181.58-23Q179.5-23 177.9-22 176.3-21 175.35-19.26L175.35-19.26 175.35-3.76 179.33-3.08 179.33 0ZM212.12 0L199.35 0 199.35-3.08 203.33-3.76 203.33-22.63 199.35-23.32 199.35-26.42 207.62-26.42 207.97-22.49Q209.28-24.58 211.27-25.74 213.26-26.9 215.8-26.9L215.8-26.9Q220.08-26.9 222.42-24.4 224.76-21.9 224.76-16.67L224.76-16.67 224.76-3.76 228.74-3.08 228.74 0 215.97 0 215.97-3.08 219.95-3.76 219.95-16.58Q219.95-20.07 218.57-21.53 217.19-23 214.36-23L214.36-23Q212.29-23 210.69-22 209.09-21 208.14-19.26L208.14-19.26 208.14-3.76 212.12-3.08 212.12 0ZM243.8 0.51L243.8 0.51Q240.14 0.51 237.43-1.16 234.72-2.83 233.24-5.81 231.77-8.79 231.77-12.7L231.77-12.7 231.77-13.77Q231.77-17.53 233.32-20.5 234.87-23.46 237.44-25.18 240.02-26.9 243.07-26.9L243.07-26.9Q246.64-26.9 249.04-25.44 251.44-23.97 252.67-21.33 253.89-18.68 253.89-15.09L253.89-15.09 253.89-12.08 236.75-12.08 236.67-11.96Q236.72-9.42 237.57-7.46 238.41-5.49 239.99-4.37 241.58-3.25 243.8-3.25L243.8-3.25Q246.24-3.25 248.09-3.94 249.93-4.64 251.27-5.86L251.27-5.86 253.15-2.73Q251.74-1.37 249.41-0.43 247.07 0.51 243.8 0.51ZM236.85-15.97L236.89-15.84 249.08-15.84 249.08-16.48Q249.08-18.38 248.41-19.89 247.73-21.39 246.4-22.25 245.07-23.12 243.07-23.12L243.07-23.12Q241.46-23.12 240.14-22.18 238.82-21.24 237.97-19.63 237.11-18.02 236.85-15.97L236.85-15.97ZM270.34 0L257.57 0 257.57-3.08 261.55-3.76 261.55-22.63 257.57-23.32 257.57-26.42 265.85-26.42 266.26-23.05 266.31-22.58Q267.43-24.61 269.08-25.76 270.73-26.9 272.85-26.9L272.85-26.9Q273.61-26.9 274.4-26.77 275.2-26.64 275.54-26.51L275.54-26.51 274.9-22.05 271.56-22.24Q269.66-22.36 268.36-21.37 267.07-20.39 266.36-18.73L266.36-18.73 266.36-3.76 270.34-3.08 270.34 0ZM300.22 0.42L300.22 0.42Q297.29 0.42 295.57-1.31 293.84-3.03 293.84-6.81L293.84-6.81 293.84-22.85 289.67-22.85 289.67-26.42 293.84-26.42 293.84-32.79 298.65-32.79 298.65-26.42 304.39-26.42 304.39-22.85 298.65-22.85 298.65-6.81Q298.65-4.91 299.41-4 300.17-3.1 301.44-3.1L301.44-3.1Q302.29-3.1 303.34-3.26 304.39-3.42 304.98-3.54L304.98-3.54 305.64-0.39Q304.59-0.07 303.06 0.17 301.54 0.42 300.22 0.42ZM317.26 0.51L317.26 0.51Q313.13 0.51 310.98-1.5 308.83-3.52 308.83-7.18L308.83-7.18Q308.83-9.69 310.21-11.56 311.59-13.43 314.2-14.47 316.82-15.5 320.45-15.5L320.45-15.5 325.17-15.5 325.17-18.09Q325.17-20.48 323.71-21.8 322.26-23.12 319.62-23.12L319.62-23.12Q317.96-23.12 316.74-22.72 315.52-22.31 314.52-21.61L314.52-21.61 314.01-17.92 310.3-17.92 310.3-23.97Q312.08-25.42 314.45-26.16 316.82-26.9 319.7-26.9L319.7-26.9Q324.51-26.9 327.24-24.61 329.97-22.31 329.97-18.04L329.97-18.04 329.97-5.32Q329.97-4.81 329.99-4.32 330-3.83 330.05-3.34L330.05-3.34 332.61-3.08 332.61 0 325.7 0Q325.48-1.07 325.36-1.93 325.24-2.78 325.19-3.64L325.19-3.64Q323.8-1.86 321.71-0.67 319.62 0.51 317.26 0.51ZM317.96-3.52L317.96-3.52Q320.36-3.52 322.33-4.66 324.31-5.81 325.17-7.42L325.17-7.42 325.17-12.21 320.28-12.21Q316.96-12.21 315.3-10.62 313.64-9.03 313.64-7.08L313.64-7.08Q313.64-5.35 314.72-4.43 315.79-3.52 317.96-3.52ZM348.87 0L336.1 0 336.1-3.08 340.08-3.76 340.08-34.3 336.1-34.99 336.1-38.09 344.89-38.09 344.89-3.76 348.87-3.08 348.87 0ZM365.01 0L353.07 0 353.07-3.08 355.75-3.39 355.68-3.49 348.04-13.35 350.53-17.19 361.2-3.66 365.01-3.08 365.01 0ZM359.51-22.68L344.55-7.64 342.77-11.43 354.24-22.85 354.36-23 351.53-23.32 351.53-26.42 362.91-26.42 362.91-23.32 359.51-22.68ZM378.33 0.51L378.33 0.51Q374.67 0.51 371.96-1.16 369.25-2.83 367.78-5.81 366.3-8.79 366.3-12.7L366.3-12.7 366.3-13.77Q366.3-17.53 367.85-20.5 369.4-23.46 371.97-25.18 374.55-26.9 377.6-26.9L377.6-26.9Q381.17-26.9 383.57-25.44 385.98-23.97 387.2-21.33 388.42-18.68 388.42-15.09L388.42-15.09 388.42-12.08 371.28-12.08 371.21-11.96Q371.25-9.42 372.1-7.46 372.94-5.49 374.53-4.37 376.11-3.25 378.33-3.25L378.33-3.25Q380.78-3.25 382.62-3.94 384.46-4.64 385.8-5.86L385.8-5.86 387.68-2.73Q386.27-1.37 383.94-0.43 381.61 0.51 378.33 0.51ZM371.38-15.97L371.42-15.84 383.61-15.84 383.61-16.48Q383.61-18.38 382.94-19.89 382.26-21.39 380.93-22.25 379.6-23.12 377.6-23.12L377.6-23.12Q375.99-23.12 374.67-22.18 373.35-21.24 372.5-19.63 371.64-18.02 371.38-15.97L371.38-15.97ZM402.97 0.51L402.97 0.51Q400.3 0.51 397.98-0.02 395.67-0.56 393.05-1.68L393.05-1.68 393-7.96 396.64-7.96 397.55-4.17Q398.91-3.61 400.19-3.36 401.48-3.1 402.97-3.1L402.97-3.1Q405.9-3.1 407.16-4.22 408.43-5.35 408.43-7.01L408.43-7.01Q408.43-8.57 407.15-9.66 405.87-10.74 402.5-11.5L402.5-11.5Q397.72-12.6 395.46-14.44 393.2-16.28 393.2-19.36L393.2-19.36Q393.2-21.51 394.44-23.21 395.69-24.9 397.91-25.9 400.13-26.9 403.09-26.9L403.09-26.9Q406.09-26.9 408.23-26.22 410.36-25.54 411.95-24.39L411.95-24.39 412.19-18.36 408.58-18.36 407.8-21.88Q406.94-22.51 405.77-22.85 404.6-23.19 403.09-23.19L403.09-23.19Q400.84-23.19 399.44-22.14 398.03-21.09 398.03-19.51L398.03-19.51Q398.03-18.58 398.44-17.9 398.84-17.21 399.99-16.66 401.13-16.11 403.36-15.58L403.36-15.58Q408.87-14.28 411.06-12.28 413.24-10.28 413.24-7.35L413.24-7.35Q413.24-4 410.77-1.75 408.29 0.51 402.97 0.51ZM442.24 0L429.47 0 429.47-3.08 433.45-3.76 433.45-22.63 429.47-23.32 429.47-26.42 438.26-26.42 438.26-3.76 442.24-3.08 442.24 0ZM438.26-32.93L433.21-32.93 433.21-38.09 438.26-38.09 438.26-32.93ZM454.89 0.42L454.89 0.42Q451.96 0.42 450.24-1.31 448.51-3.03 448.51-6.81L448.51-6.81 448.51-22.85 444.34-22.85 444.34-26.42 448.51-26.42 448.51-32.79 453.32-32.79 453.32-26.42 459.06-26.42 459.06-22.85 453.32-22.85 453.32-6.81Q453.32-4.91 454.08-4 454.84-3.1 456.11-3.1L456.11-3.1Q456.96-3.1 458.01-3.26 459.06-3.42 459.65-3.54L459.65-3.54 460.31-0.39Q459.26-0.07 457.73 0.17 456.21 0.42 454.89 0.42ZM484.35 0.51L484.35 0.51Q480.22 0.51 478.08-1.5 475.93-3.52 475.93-7.18L475.93-7.18Q475.93-9.69 477.31-11.56 478.69-13.43 481.3-14.47 483.91-15.5 487.55-15.5L487.55-15.5 492.26-15.5 492.26-18.09Q492.26-20.48 490.81-21.8 489.35-23.12 486.72-23.12L486.72-23.12Q485.06-23.12 483.84-22.72 482.62-22.31 481.62-21.61L481.62-21.61 481.1-17.92 477.39-17.92 477.39-23.97Q479.17-25.42 481.54-26.16 483.91-26.9 486.79-26.9L486.79-26.9Q491.6-26.9 494.33-24.61 497.07-22.31 497.07-18.04L497.07-18.04 497.07-5.32Q497.07-4.81 497.08-4.32 497.09-3.83 497.14-3.34L497.14-3.34 499.71-3.08 499.71 0 492.8 0Q492.58-1.07 492.45-1.93 492.33-2.78 492.28-3.64L492.28-3.64Q490.89-1.86 488.8-0.67 486.72 0.51 484.35 0.51ZM485.06-3.52L485.06-3.52Q487.45-3.52 489.43-4.66 491.41-5.81 492.26-7.42L492.26-7.42 492.26-12.21 487.38-12.21Q484.06-12.21 482.4-10.62 480.74-9.03 480.74-7.08L480.74-7.08Q480.74-5.35 481.81-4.43 482.88-3.52 485.06-3.52ZM515.96 0L503.19 0 503.19-3.08 507.17-3.76 507.17-34.3 503.19-34.99 503.19-38.09 511.98-38.09 511.98-3.76 515.96-3.08 515.96 0ZM531.9 0L519.13 0 519.13-3.08 523.11-3.76 523.11-34.3 519.13-34.99 519.13-38.09 527.92-38.09 527.92-3.76 531.9-3.08 531.9 0Z" opacity="1" transform="matrix(1,0,0,1,0,0)" fill="#fbfbf8" class="undefined-text-1" data-fill-palette-color="secondary" id="text-1"></path></svg></g></svg></g></svg></g></svg></g><g><svg viewBox="0 0 198.16403933545493 157.91391929807537" height="157.91391929807537" width="198.16403933545493"><g><svg xmlns="http://www.w3.org/2000/svg" xmlns:xlink="http://www.w3.org/1999/xlink" version="1.1" x="0" y="0" viewBox="4.993999481201172 14.134000778198242 90.01300048828125 71.72999572753906" enable-background="new 0 0 100 100" xml:space="preserve" height="157.91391929807537" width="198.16403933545493" class="icon-icon-0" data-fill-palette-color="accent" id="icon-0"><path d="M79.063 28.195l-18.999-9.745-15.973-0.767-12.477-3.549L14.73 21.368l-1.455 3.092-6.238 5.432-2.043 2.475 0.484 1.021 2.394 2.421 3.415 0.914 1.559-0.161 3.389-1.506-2.824 1.956 5.66 0.667 11.455-0.848 2.847-4.399-0.205 4.61 4.307 1.868 1.938-0.896-1.13 2.206 2.268 14.72 8.225 23.22-9.066 0.333-1.395 6.842 16.98-0.059 3.193-9.429-0.355-16.849L53.98 32.483 59.844 59l4.85-13.037 14.543 7.801L65.27 47.677l-4.61 13.773-0.118 15.282 12.553 3.736-13.262-1.343-2.41 6.207 32.146 0.532 5.438-27.311L79.063 28.195zM17.174 25.59l-1.585-0.35-0.403-1.479 1.182-0.108 1.64 0.914L17.174 25.59zM32.314 20.588l0.833-0.995 0.969 2.313-0.901 2.582-0.794 0.564-0.107-2.555-1.748-2.743 0.268-1.56 1.238-0.511 3.038 0.78-2.743-0.054-0.672 0.915L32.314 20.588z" fill="#ffffff" data-fill-palette-color="accent"></path></svg></g></svg></g></svg></g><defs></defs></svg><rect width="395.52" height="103.48868748438773" fill="none" stroke="none" visibility="hidden"></rect></g></svg></g></svg>