<svg xmlns="http://www.w3.org/2000/svg" version="1.1" xmlns:xlink="http://www.w3.org/1999/xlink" xmlns:svgjs="http://svgjs.dev/svgjs" width="1000" height="1000" viewBox="0 0 1000 1000"><rect width="1000" height="1000" fill="#010536"></rect><g transform="matrix(0.7,0,0,0.7,149.57575757575756,398.1249002769041)"><svg viewBox="0 0 396 115" data-background-color="#010536" preserveAspectRatio="xMidYMid meet" height="290" width="1000" xmlns="http://www.w3.org/2000/svg" xmlns:xlink="http://www.w3.org/1999/xlink"><g id="tight-bounds" transform="matrix(1,0,0,1,0.2400000000000091,0.2124949170247703)"><svg viewBox="0 0 395.52 114.57501016595047" height="114.57501016595047" width="395.52"><g><svg viewBox="0 0 672.4051998719999 194.78365850266067" height="114.57501016595047" width="395.52"><g transform="matrix(1,0,0,1,276.885199872,28.65582925133033)"><svg viewBox="0 0 395.52 137.472" height="137.472" width="395.52"><g id="textblocktransform"><svg viewBox="0 0 395.52 137.472" height="137.472" width="395.52" id="textblock"><g><svg viewBox="0 0 395.52 137.472" height="137.472" width="395.52"><g transform="matrix(1,0,0,1,0,0)"><svg width="395.52" viewBox="0 -35.8 103 35.8" height="137.472" data-palette-color="#fbfbf8"><path d="M26.7-2.15L31.55-2.15 31.55 0 0 0 0-2.15 4.85-2.15 4.85-34.95 10.75-34.95 10.75-5.6 26.7-5.6 26.7-2.15ZM28.3-2.15L33.15-2.15 33.15-34.95 57.7-34.95 57.7-29.4 39.05-29.4 39.05-20.15 55.8-20.15 55.8-14.9 39.05-14.9 39.05-5.55 58.3-5.55 58.3-2.15 63.15-2.15 63.15 0 28.3 0 28.3-2.15ZM91.55-2.15L103-2.15 103 0 61 0 61-2.15 72.45-2.15Q68.34-4.5 65.97-8.6 63.6-12.7 63.6-17.75L63.6-17.75Q63.6-25.45 68.9-30.63 74.2-35.8 82-35.8 89.8-35.8 95.09-30.63 100.4-25.45 100.4-17.75L100.4-17.75Q100.4-12.75 98.02-8.6 95.65-4.45 91.55-2.15L91.55-2.15ZM90.77-26.7Q87.2-30.4 82-30.4 76.8-30.4 73.22-26.7 69.65-23 69.65-17.73 69.65-12.45 73.22-8.75 76.8-5.05 82-5.05 87.2-5.05 90.77-8.75 94.34-12.45 94.34-17.73 94.34-23 90.77-26.7Z" opacity="1" transform="matrix(1,0,0,1,0,0)" fill="#fbfbf8" class="undefined-text-0" data-fill-palette-color="primary" id="text-0"></path></svg></g></svg></g></svg></g></svg></g><g><svg viewBox="0 0 244.43135999999998 194.78365850266067" height="194.78365850266067" width="244.43135999999998"><g><svg xmlns="http://www.w3.org/2000/svg" xmlns:xlink="http://www.w3.org/1999/xlink" version="1.1" x="0" y="0" viewBox="4.994 14.134000000000004 90.013 71.72999999999999" enable-background="new 0 0 100 100" xml:space="preserve" height="194.78365850266067" width="244.43135999999998" class="icon-icon-0" data-fill-palette-color="accent" id="icon-0"><path d="M79.063 28.195l-18.999-9.745-15.973-0.767-12.477-3.549L14.73 21.368l-1.455 3.092-6.238 5.432-2.043 2.475 0.484 1.021 2.394 2.421 3.415 0.914 1.559-0.161 3.389-1.506-2.824 1.956 5.66 0.667 11.455-0.848 2.847-4.399-0.205 4.61 4.307 1.868 1.938-0.896-1.13 2.206 2.268 14.72 8.225 23.22-9.066 0.333-1.395 6.842 16.98-0.059 3.193-9.429-0.355-16.849L53.98 32.483 59.844 59l4.85-13.037 14.543 7.801L65.27 47.677l-4.61 13.773-0.118 15.282 12.553 3.736-13.262-1.343-2.41 6.207 32.146 0.532 5.438-27.311L79.063 28.195zM17.174 25.59l-1.585-0.35-0.403-1.479 1.182-0.108 1.64 0.914L17.174 25.59zM32.314 20.588l0.833-0.995 0.969 2.313-0.901 2.582-0.794 0.564-0.107-2.555-1.748-2.743 0.268-1.56 1.238-0.511 3.038 0.78-2.743-0.054-0.672 0.915L32.314 20.588z" fill="#ffffff" data-fill-palette-color="accent"></path></svg></g></svg></g></svg></g><defs></defs></svg><rect width="395.52" height="114.57501016595047" fill="none" stroke="none" visibility="hidden"></rect></g></svg></g></svg>